# xmcd
#
# Track frame offsets: 
#        150
#        24059
#        49706
#        54965
#        69179
#        83973
#        102255
#        136447
#        152459
#        191579
#        214189
#
# Disc length: 4294 seconds
#
# Revision: 0
# Processed by: cddbd v1.5.2PL0 Copyright (c) Steve Scherf et al.
# Submitted via: ExactAudioCopy v1.0b3
#
DISCID=8510c40b
DTITLE=Oluf Hasvén - Inner Goddess
DYEAR=2007
DGENRE=New Age
TTITLE0=Maria
TTITLE1=Woman of Grace
TTITLE2=Joyful Celebration 
TTITLE3=Embrace the Feeling 
TTITLE4=Eyes of Wisdom
TTITLE5=A grand Event 
TTITLE6=Eternal Beauty 
TTITLE7=Sensitive Voices 
TTITLE8=A peaceful Place 
TTITLE9=Guidance
TTITLE10=Healing with a Heart
EXTD=
EXTT0=
EXTT1=
EXTT2=
EXTT3=
EXTT4=
EXTT5=
EXTT6=
EXTT7=
EXTT8=
EXTT9=
EXTT10=
PLAYORDER=
